<svg width="64" height="64" viewBox="0 0 64 64" fill="none" xmlns="http://www.w3.org/2000/svg">
<path fill-rule="evenodd" clip-rule="evenodd" d="M29.6972 26.2028C35.3083 28.0656 43.086 30.6479 51.2323 22.5016C55.2323 18.5016 37.2323 1.50163 22.7323 11.0016C11.399 12.6806 12.0467 19.4715 12.5466 24.7123C12.6422 25.7142 12.7323 26.6595 12.7323 27.5016C12.7323 28.0345 12.802 28.4333 12.9326 28.7199C12.7719 29.953 12.7323 31.1869 12.7323 32.0016C12.7323 34.2108 14.5232 36.0016 16.7323 36.0016C18.9414 36.0016 20.7323 34.2108 20.7323 32.0016C22.9414 32.0016 24.7323 30.2108 24.7323 28.0016C24.7323 27.6556 24.6884 27.3199 24.6058 26.9997C24.6478 27.001 24.69 27.0016 24.7323 27.0016C25.956 27.0016 27.0514 26.4521 27.7851 25.5864C28.3897 25.7686 29.028 25.9806 29.6972 26.2028Z" fill="#1B0B47"/>
</svg>
